<svg width="1600" height="512" viewBox="0 0 1600 512" fill="none" xmlns="http://www.w3.org/2000/svg">
  <defs>
    <linearGradient id="axis-logo-bg" x1="76" y1="58" x2="442" y2="462" gradientUnits="userSpaceOnUse">
      <stop offset="0" stop-color="#131A20"/>
      <stop offset="1" stop-color="#091016"/>
    </linearGradient>
    <radialGradient id="axis-logo-glow" cx="0" cy="0" r="1" gradientUnits="userSpaceOnUse" gradientTransform="translate(260 236) rotate(90) scale(198)">
      <stop offset="0" stop-color="#16212A"/>
      <stop offset="1" stop-color="#16212A" stop-opacity="0"/>
    </radialGradient>
  </defs>

  <rect x="32" y="32" width="448" height="448" rx="104" fill="url(#axis-logo-bg)"/>
  <rect x="32" y="32" width="448" height="448" rx="104" fill="url(#axis-logo-glow)"/>

  <g opacity="0.92">
    <path d="M140 78V434" stroke="#182028" stroke-width="2"/>
    <path d="M380 78V434" stroke="#182028" stroke-width="2"/>
    <path d="M78 140H434" stroke="#182028" stroke-width="2"/>
    <path d="M78 380H434" stroke="#182028" stroke-width="2"/>
  </g>

  <g opacity="0.98">
    <path d="M256 78V434" stroke="#365066" stroke-width="8" stroke-linecap="round"/>
    <path d="M78 274H434" stroke="#365066" stroke-width="8" stroke-linecap="round"/>
  </g>

  <g>
    <path d="M172 374L246 152" stroke="#F7EFE5" stroke-width="44" stroke-linecap="round" stroke-linejoin="round"/>
    <path d="M340 374L266 152" stroke="#F7EFE5" stroke-width="44" stroke-linecap="round" stroke-linejoin="round"/>
    <path d="M208 274H311" stroke="#F7EFE5" stroke-width="36" stroke-linecap="round"/>
  </g>

  <circle cx="256" cy="274" r="28" fill="#E59A49"/>
  <circle cx="256" cy="274" r="11" fill="#F7EFE5"/>

  <circle cx="380" cy="156" r="12" fill="#77D19A"/>
  <path d="M352 156H408" stroke="#77D19A" stroke-width="5" stroke-linecap="round" opacity="0.35"/>
  <path d="M380 128V184" stroke="#77D19A" stroke-width="5" stroke-linecap="round" opacity="0.35"/>

  <text x="560" y="304" fill="#11181E" font-family="Avenir Next, SF Pro Display, Inter, Arial, sans-serif" font-size="204" font-weight="700" letter-spacing="8">axis</text>
</svg>
